<svg id="Capa_1" enable-background="new 0 0 512 512" height="512" viewBox="0 0 512 512" width="512"
  xmlns="http://www.w3.org/2000/svg">
  <g>
    <g>
      <path clip-rule="evenodd" d="m296.991 386.83v-176.416h-233.353v176.416l78.351-123.471 52.32 82.465 38.339-60.402z"
        fill="rgba(14,14,49,0.695)" fill-rule="evenodd" />
    </g>
    <g>
      <path clip-rule="evenodd" d="m194.309 345.824-52.32-82.465-78.351 123.471h156.703z" fill="#465b47"
        fill-rule="evenodd" />
    </g>
    <g>
      <path clip-rule="evenodd" d="m296.991 386.83-64.343-101.408-38.339 60.402 26.032 41.006z" fill="#809d81"
        fill-rule="evenodd" />
    </g>
    <g>
      <path clip-rule="evenodd"
        d="m501.901 145.162h-113.033-113.202-113.203v-63.182c0-12.137-9.953-22.063-22.09-22.063h-108.212c-12.137 0-22.062 9.925-22.062 22.063v348.011c0 12.166 9.925 22.091 22.062 22.091h447.649c12.137 0 22.09-9.954 22.09-22.091v-284.829zm-204.91 65.252v176.416h-76.65-156.703v-176.416z"
        fill="rgba(27,27,31,0.695)" fill-rule="evenodd" />
    </g>
    <g>
      <path clip-rule="evenodd" d="m162.463 81.98h113.203v63.182h-113.203z" fill="#72617b" fill-rule="evenodd" />
    </g>
    <g>
      <path clip-rule="evenodd" d="m275.666 81.98h113.203v63.182h-113.203z" fill="#94acb1" fill-rule="evenodd" />
    </g>
    <g>
      <path clip-rule="evenodd" d="m501.901 104.071c0-12.137-9.953-22.091-22.09-22.091h-90.942v63.182h113.032z"
        fill="#a086ad" fill-rule="evenodd" />
    </g>
    <g fill="#DFDFD6">
      <path
        d="m297.006 200.392h-71.829c-5.525 0-10.004 4.479-10.004 10.004s4.479 10.004 10.004 10.004h61.825v132.041l-45.917-72.368c-1.835-2.892-5.021-4.644-8.446-4.644 0 0 0 0-.001 0-3.424 0-6.611 1.752-8.446 4.642l-29.901 47.109-43.899-69.179c-1.835-2.892-5.022-4.643-8.447-4.643s-6.611 1.752-8.447 4.643l-59.931 94.443v-132.044h61.74c5.525 0 10.004-4.479 10.004-10.004s-4.479-10.004-10.004-10.004h-71.744c-5.525 0-10.004 4.479-10.004 10.004v176.485c0 5.443 4.554 10.004 10.01 10.004h233.431c5.457 0 10.01-4.561 10.01-10.004v-176.485c0-5.524-4.479-10.004-10.004-10.004zm-64.369 103.712 46.174 72.773h-52.985l-19.688-31.025zm-90.692-22.07 43.913 69.201c.075.117.143.237.223.352l16.049 25.291h-120.37z" />
      <path
        d="m341.47 210.396c0 5.525 4.479 10.004 10.004 10.004h97.133c5.525 0 10.004-4.479 10.004-10.004s-4.479-10.004-10.004-10.004h-97.133c-5.525 0-10.004 4.48-10.004 10.004z" />
      <path
        d="m448.607 258.152h-97.133c-5.525 0-10.004 4.479-10.004 10.004s4.479 10.004 10.004 10.004h97.133c5.525 0 10.004-4.479 10.004-10.004s-4.479-10.004-10.004-10.004z" />
      <path
        d="m448.607 315.94h-97.133c-5.525 0-10.004 4.479-10.004 10.004s4.479 10.004 10.004 10.004h97.133c5.525 0 10.004-4.479 10.004-10.004 0-5.524-4.479-10.004-10.004-10.004z" />
      <path
        d="m448.607 373.7h-97.133c-5.525 0-10.004 4.479-10.004 10.004s4.479 10.004 10.004 10.004h97.133c5.525 0 10.004-4.479 10.004-10.004s-4.479-10.004-10.004-10.004z" />
      <path
        d="m512 104.012c0-17.702-14.401-32.103-32.103-32.103h-309.064c-4.217-12.802-16.298-22.071-30.505-22.071h-108.254c-17.686 0-32.074 14.388-32.074 32.075v348.146c0 17.702 14.388 32.103 32.074 32.103h447.823c17.702 0 32.103-14.401 32.103-32.103zm-226.323 31.103v-43.198h93.239v43.198zm-113.246-43.198h93.238v43.198h-93.238zm319.561 338.142c0 6.67-5.426 12.096-12.095 12.096h-447.823c-6.653 0-12.067-5.426-12.067-12.096v-348.146c0-6.654 5.413-12.067 12.067-12.067h108.253c6.67 0 12.096 5.413 12.096 12.067v63.206c0 5.525 4.479 10.004 10.004 10.004h329.565zm0-294.944h-93.068v-43.198h80.973c6.669 0 12.095 5.426 12.095 12.096z" />
      <path
        d="m118.712 112.484c5.525 0 10.004-4.479 10.004-10.004s-4.479-10.004-10.004-10.004h-64.992c-5.525 0-10.004 4.479-10.004 10.004s4.479 10.004 10.004 10.004z" />
      <path
        d="m180.242 220.4h.057c5.525 0 9.976-4.479 9.976-10.004s-4.507-10.004-10.032-10.004-10.004 4.479-10.004 10.004c-.001 5.525 4.478 10.004 10.003 10.004z" />
    </g>
  </g>
</svg>